<svg fill="#FFFFFF" xmlns="http://www.w3.org/2000/svg"  viewBox="0 0 48 48">
  <path
     d="M 24,3 C 23.621375,3 23.241844,3.0946562 22.902344,3.2851562 19.548344,5.1681563 9.4516563,10.837703 6.0976562,12.720703 5.4186563,13.101703 5,13.804406 5,14.566406 v 18.867188 c 0,0.762 0.4177031,1.464703 1.0957031,1.845703 3.356,1.883 13.4516409,7.552547 16.8066409,9.435547 0.678,0.381 1.514359,0.381 2.193359,0 3.356,-1.883 13.451641,-7.552547 16.806641,-9.435547 C 42.581344,34.898297 43,34.195594 43,33.433594 V 14.566406 c 0,-0.762 -0.418656,-1.465703 -1.097656,-1.845703 -3.356,-1.883 -13.451641,-7.5525467 -16.806641,-9.4355468 C 24.756703,3.0946562 24.378625,3 24,3 Z m 0,7 c 5.127738,0 9.60223,2.770003 12.041016,6.886719 L 29.96875,20.357422 C 28.738108,18.347027 26.527415,17 24,17 c -3.864,0 -7,3.136 -7,7 0,3.863 3.137,7 7,7 2.569773,0 4.811827,-1.392322 6.029297,-3.458984 l 6.132812,3.373046 C 33.751748,35.142075 29.211103,38 24,38 16.273,38 10,31.727 10,24 10,16.273 16.273,10 24,10 Z"/>
</svg>
