<?xml version="1.0" encoding="UTF-8" standalone="no"?>
<svg
   fill="#ffffff"
   viewBox="0 0 48 48"
   version="1.1"
   id="svg3"
   sodipodi:docname="react-mono.svg"
   inkscape:version="1.1.1 (3bf5ae0d25, 2021-09-20)"
   xmlns:inkscape="http://www.inkscape.org/namespaces/inkscape"
   xmlns:sodipodi="http://sodipodi.sourceforge.net/DTD/sodipodi-0.dtd"
   xmlns="http://www.w3.org/2000/svg"
   xmlns:svg="http://www.w3.org/2000/svg">
  <defs
     id="defs7" />
  <sodipodi:namedview
     id="namedview5"
     pagecolor="#ffffff"
     bordercolor="#666666"
     borderopacity="1.0"
     inkscape:pageshadow="2"
     inkscape:pageopacity="0.0"
     inkscape:pagecheckerboard="0"
     showgrid="false"
     inkscape:zoom="17.333333"
     inkscape:cx="24.778847"
     inkscape:cy="24.951924"
     inkscape:window-width="1920"
     inkscape:window-height="1017"
     inkscape:window-x="-8"
     inkscape:window-y="-8"
     inkscape:window-maximized="1"
     inkscape:current-layer="svg3" />
  <path
     d="M 17.159506,6 C 16.192088,6 15.294833,6.227582 14.5,6.7084312 12.015956,8.2155198 11.070445,11.888166 11.571452,16.460733 7.5534426,18.291093 5,20.986235 5,24 5,27.013765 7.5534426,29.708907 11.571452,31.539267 11.070704,36.111654 12.015956,39.784481 14.5,41.291569 15.29325,41.772418 16.190504,42 17.159506,42 19.221997,42 21.605762,40.912232 24,39.046038 26.394446,40.912232 28.781097,42 30.843588,42 c 0.967416,0 1.86467,-0.227582 2.659504,-0.708431 2.48403,-1.50708 3.429537,-5.179772 2.928548,-9.752302 C 40.448137,29.708925 43,27.013111 43,24 43,20.986235 40.446556,18.291093 36.428548,16.460733 36.929297,11.888345 35.984044,8.2155198 33.5,6.7084312 32.70675,6.2259181 31.809494,6 30.840494,6 28.778003,6 26.394238,7.087768 24,8.9539628 21.605624,7.087768 19.221283,6 17.159506,6 Z m 0,2.911717 c 1.237586,0 2.874181,0.6915045 4.651042,1.972558 -1.044712,1.036046 -2.06789,2.214144 -3.052248,3.525907 -1.596591,0.240572 -3.101917,0.591266 -4.496419,1.03015 -0.0075,-0.101626 -0.02523,-0.208259 -0.03093,-0.30872 -0.169417,-2.961632 0.449543,-5.1693371 1.65446,-5.9014259 0.35625,-0.216299 0.772172,-0.3184691 1.274089,-0.3184691 z m 13.680988,0 c 0.500333,0 0.917839,0.1021696 1.274089,0.3184691 1.204917,0.730425 1.823877,2.9397939 1.65446,5.9014259 -0.0057,0.100461 -0.0234,0.207095 -0.03093,0.30872 C 32.342742,15.001173 30.836309,14.65077 29.238607,14.410182 28.254262,13.098601 27.234142,11.9202 26.189452,10.884275 27.96619,9.6034354 29.603548,8.911717 30.840494,8.911717 Z M 24,12.733345 c 0.42921,0.410527 0.855421,0.844429 1.286458,1.319372 -0.427154,-0.01508 -0.852034,-0.03575 -1.286458,-0.03575 -0.43338,0 -0.85722,0.02074 -1.283367,0.03575 C 23.14729,13.578267 23.571192,13.143483 24,12.733345 Z m 0,4.195342 c 1.312089,0 2.555703,0.07707 3.735677,0.21123 0.719602,1.027826 1.428799,2.114502 2.093587,3.324427 0.637186,1.15975 1.200638,2.346824 1.697754,3.535656 -0.497183,1.189548 -1.060184,2.37846 -1.697754,3.538906 -0.662724,1.206434 -1.370155,2.286107 -2.087403,3.311429 -1.221652,0.140459 -2.474848,0.220978 -3.741861,0.220978 -1.312089,0 -2.555703,-0.07707 -3.735678,-0.21123 C 19.544721,29.832257 18.835524,28.748831 18.170735,27.538906 17.533166,26.37846 16.970307,25.189548 16.472982,24 c 0.496974,-1.188832 1.060567,-2.375906 1.697753,-3.535656 0.662979,-1.206435 1.369984,-2.289357 2.087403,-3.314679 C 21.479791,17.009205 22.732986,16.928687 24,16.928687 Z m 7.514649,0.900163 c 0.628182,0.159379 1.232085,0.331425 1.799803,0.523199 -0.128619,0.610714 -0.285913,1.233136 -0.463866,1.862068 -0.203743,-0.401763 -0.401326,-0.804808 -0.621582,-1.205632 -0.226618,-0.412306 -0.478201,-0.782739 -0.714355,-1.179635 z m -15.03239,0.0033 c -0.235359,0.395594 -0.485373,0.765324 -0.711262,1.176307 -0.220191,0.400892 -0.417901,0.80381 -0.621583,1.205632 -0.178357,-0.630228 -0.33821,-1.253392 -0.466959,-1.865317 0.578131,-0.19195 1.180526,-0.361935 1.799804,-0.5167 z m -4.406738,1.585846 c 0.333603,1.480184 0.796385,3.014582 1.391601,4.578805 -0.593956,1.560507 -1.05479,3.092087 -1.388508,4.569056 C 9.321285,27.166622 7.7708333,25.424866 7.7708333,24 c 0,-1.462514 1.5071357,-3.129237 4.0325527,-4.455316 0.0862,-0.04532 0.184058,-0.08248 0.272135,-0.126735 z m 23.845865,0.01631 c 2.757328,1.399048 4.307781,3.140804 4.307781,4.56567 0,1.462514 -1.507136,3.129237 -4.032553,4.455316 -0.0862,0.04531 -0.184058,0.08248 -0.272135,0.126735 -0.333798,-1.481049 -0.79279,-3.01688 -1.388509,-4.582051 0.593244,-1.559161 1.051976,-3.090074 1.385416,-4.565807 z M 24,20.672323 c -1.749583,0 -3.166667,1.489136 -3.166667,3.327677 0,1.838541 1.417084,3.327676 3.166667,3.327676 1.749583,0 3.166667,-1.489135 3.166667,-3.327676 0,-1.838541 -1.417084,-3.327677 -3.166667,-3.327677 z m -8.850586,7.11356 c 0.203812,0.401911 0.404336,0.80466 0.624674,1.205632 0.226372,0.412008 0.475361,0.783015 0.711263,1.179634 -0.628183,-0.159379 -1.232085,-0.331424 -1.799804,-0.523198 0.128715,-0.611097 0.28576,-1.232735 0.463867,-1.862068 z m 17.701172,0.0033 c 0.178157,0.629622 0.338315,1.250717 0.46696,1.862068 -0.578132,0.191951 -1.180527,0.361935 -1.799805,0.5167 0.23536,-0.395672 0.485372,-0.765402 0.711263,-1.176385 0.219732,-0.400058 0.418291,-0.801398 0.621582,-1.202383 z m -18.588705,4.770536 c 1.395378,0.43916 2.90181,0.789561 4.499512,1.03015 0.984646,1.312224 2.003991,2.492867 3.049155,3.529158 -1.776732,1.280681 -3.413534,1.972556 -4.651042,1.972556 -0.500334,0 -0.917839,-0.10542 -1.274089,-0.321718 -1.204917,-0.730425 -1.823877,-2.936545 -1.65446,-5.898177 0.0058,-0.10151 0.0233,-0.209274 0.03093,-0.311969 z m 19.476238,0 c 0.0076,0.102692 0.02516,0.210462 0.03093,0.311969 0.169417,2.961632 -0.449543,5.166088 -1.65446,5.898177 -0.35625,0.216299 -0.772172,0.32172 -1.274089,0.321718 -1.237508,0 -2.87431,-0.691662 -4.651042,-1.972556 1.045241,-1.03641 2.067406,-2.216752 3.052247,-3.529158 1.596592,-0.240573 3.101918,-0.591266 4.49642,-1.03015 z m -11.024577,1.387565 c 0.427154,0.01508 0.852034,0.03575 1.286458,0.03575 0.434424,0 0.859304,-0.02067 1.286458,-0.03574 C 24.855421,34.422227 24.42921,34.856158 24,35.266658 23.57079,34.856131 23.144579,34.42223 22.713542,33.947288 Z"
     id="path2"
     style="stroke-width:1.62308" />
</svg>
