<?xml version="1.0" encoding="UTF-8" standalone="no"?>
<svg
   xmlns:dc="http://purl.org/dc/elements/1.1/"
   xmlns:cc="http://creativecommons.org/ns#"
   xmlns:rdf="http://www.w3.org/1999/02/22-rdf-syntax-ns#"
   xmlns:svg="http://www.w3.org/2000/svg"
   xmlns="http://www.w3.org/2000/svg"
   xmlns:sodipodi="http://sodipodi.sourceforge.net/DTD/sodipodi-0.dtd"
   xmlns:inkscape="http://www.inkscape.org/namespaces/inkscape"
   fill="#FFFFFF"
   viewBox="0 0 50 50"
   version="1.1"
   id="svg4"
   sodipodi:docname="mail.svg"
   inkscape:version="0.92.4 (5da689c313, 2019-01-14)">
  <metadata
     id="metadata10">
    <rdf:RDF>
      <cc:Work
         rdf:about="">
        <dc:format>image/svg+xml</dc:format>
        <dc:type
           rdf:resource="http://purl.org/dc/dcmitype/StillImage" />
        <dc:title />
      </cc:Work>
    </rdf:RDF>
  </metadata>
  <defs
     id="defs8" />
  <sodipodi:namedview
     pagecolor="#ffffff"
     bordercolor="#666666"
     borderopacity="1"
     objecttolerance="10"
     gridtolerance="10"
     guidetolerance="10"
     inkscape:pageopacity="0"
     inkscape:pageshadow="2"
     inkscape:window-width="1920"
     inkscape:window-height="1027"
     id="namedview6"
     showgrid="false"
     inkscape:pagecheckerboard="true"
     inkscape:zoom="8"
     inkscape:cx="-13.059099"
     inkscape:cy="21.601991"
     inkscape:window-x="-8"
     inkscape:window-y="-8"
     inkscape:window-maximized="1"
     inkscape:current-layer="svg4" />
  <path
     d="M 1,7 V 43 H 49 V 7 Z m 6,3.272727 h 36 c 0.27,0 0.524649,0.03322 0.764649,0.115053 L 29.019532,26.457384 c -2.22,2.421818 -5.833712,2.421818 -8.053712,0 L 6.235351,10.387783 C 6.475351,10.305964 6.73,10.272727 7,10.272727 Z M 4.105468,12.711292 15.384766,25 4.105468,37.288708 C 4.030468,37.02689 4,36.749091 4,36.454546 V 13.545454 C 4,13.250909 4.03046,12.97311 4.105465,12.711292 Z m 41.789064,0 C 45.969532,12.97311 46,13.250909 46,13.545454 v 22.909092 c 0,0.294545 -0.03046,0.572344 -0.105465,0.834162 L 34.600586,25 Z M 17.5,27.307528 l 1.335937,1.473368 c 1.695,1.849091 3.929414,2.764558 6.149414,2.764558 2.235,0 4.454415,-0.915467 6.149415,-2.764558 l 1.350585,-1.473368 11.279298,12.304689 C 43.524649,39.694035 43.27,39.727273 43,39.727273 H 7 c -0.27,0 -0.524649,-0.03323 -0.764649,-0.115053 z"
     id="path2"
     inkscape:connector-curvature="0"
     style="display:inline;stroke-width:1.56669891"
     sodipodi:nodetypes="cccccssccscscccsscccsscccccssccsscc" />
</svg>
