<?xml version="1.0" encoding="UTF-8" standalone="no"?>
<svg
   xmlns:dc="http://purl.org/dc/elements/1.1/"
   xmlns:cc="http://creativecommons.org/ns#"
   xmlns:rdf="http://www.w3.org/1999/02/22-rdf-syntax-ns#"
   xmlns:svg="http://www.w3.org/2000/svg"
   xmlns="http://www.w3.org/2000/svg"
   xmlns:sodipodi="http://sodipodi.sourceforge.net/DTD/sodipodi-0.dtd"
   xmlns:inkscape="http://www.inkscape.org/namespaces/inkscape"
   viewBox="0 0 128 128"
   version="1.1"
   id="svg1409"
   sodipodi:docname="light.svg"
   inkscape:version="0.92.4 (5da689c313, 2019-01-14)">
  <metadata
     id="metadata1415">
    <rdf:RDF>
      <cc:Work
         rdf:about="">
        <dc:format>image/svg+xml</dc:format>
        <dc:type
           rdf:resource="http://purl.org/dc/dcmitype/StillImage" />
      </cc:Work>
    </rdf:RDF>
  </metadata>
  <defs
     id="defs1413" />
  <sodipodi:namedview
     pagecolor="#ffffff"
     bordercolor="#666666"
     borderopacity="1"
     objecttolerance="10"
     gridtolerance="10"
     guidetolerance="10"
     inkscape:pageopacity="0"
     inkscape:pageshadow="2"
     inkscape:window-width="1920"
     inkscape:window-height="1027"
     id="namedview1411"
     showgrid="false"
     inkscape:zoom="3.6875"
     inkscape:cx="24.751406"
     inkscape:cy="25.023962"
     inkscape:window-x="-8"
     inkscape:window-y="-8"
     inkscape:window-maximized="1"
     inkscape:current-layer="svg1409" />
  <path
     d="m 65,12 c -1,0 -2,0.500391 -2.5,1.400391 -1.4,2.1 -3.500391,3.50039 -5.900391,3.90039 -2.4,0.4 -4.90039,-0.101562 -6.90039,-1.601562 -0.8,-0.6 -1.898828,-0.798438 -2.798828,-0.398438 -1,0.3 -1.700391,1.09961 -1.900391,2.09961 l -0.199219,0.798828 c -0.4,1.9 -1.7,3.500781 -3.5,4.300781 -1.8,0.8 -3.801562,0.800391 -5.601562,-0.09961 L 29.199219,19 c -1.1,-0.6 -2.398438,-0.399609 -3.398438,0.400391 -0.9,0.8 -1.200781,2.098828 -0.800781,3.298828 l 2.099609,5.701172 c 0.6,1.6 2.300391,2.298828 3.900391,1.798828 1.1,-0.4 1.9,-1.39961 2,-2.59961 h 0.09961 c 3.4,1.7 7.300782,1.801172 10.800782,0.201172 2.5,-1.2 4.499218,-3.1 5.699218,-5.5 2.5,1 5.29961,1.298828 8.09961,0.798828 2.8,-0.5 5.30039,-1.799609 7.40039,-3.599609 2.1,1.8 4.600391,3.099609 7.400391,3.599609 2.8,0.5 5.599219,0.19961 8.199219,-0.90039 1.3,2.4 3.301172,4.50039 5.701172,5.90039 2.4,1.4 5.2,2.1 8,2 0.4,2.7 1.498828,5.4 3.298828,7.5 1.8,2.1 4.200781,3.69961 6.800781,4.59961 -0.6,2.7 -0.40039,5.601172 0.59961,8.201172 1,2.6 2.60078,4.899609 4.80078,6.599609 -1.5,2.3 -2.30078,5.100391 -2.30078,7.900391 0,2.8 0.80078,5.50039 2.30078,7.90039 -2.3,1.8 -4,4.099219 -5,6.699219 -1.4,3.9 -1.10078,8.200781 0.69922,11.800781 0.1,0.2 0.20039,0.39961 0.40039,0.59961 l 10.19922,12.199219 c 0.6,0.7 1.40078,1.09961 2.30078,1.09961 0.7,0 1.40039,-0.19922 1.90039,-0.69922 1.3,-1.1 1.40039,-2.99922 0.40039,-4.19922 l -9.90039,-11.900389 c -1,-2.2 -1.10078,-4.600782 -0.30078,-6.800782 0.9,-2.3 2.60039,-4.199609 4.90039,-5.099609 0.9,-0.4 1.60078,-1.199219 1.80078,-2.199219 0.2,-1 -0.20039,-2.001172 -0.90039,-2.701172 -1.8,-1.7 -2.80078,-4 -2.80078,-6.5 0,-2.5 1.00078,-4.8 2.80078,-6.5 0.7,-0.7 1.10039,-1.699218 0.90039,-2.699218 -0.2,-1 -0.80078,-1.801172 -1.80078,-2.201172 -2.3,-1 -4.00039,-2.79961 -4.90039,-5.09961 C 109.69961,46.299609 109.9,43.8 111,41.5 c 0.5,-0.9 0.40039,-2.000391 -0.0996,-2.900391 -0.5,-0.9 -1.40039,-1.4 -2.40039,-1.5 -2.5,-0.1 -4.70078,-1.299218 -6.30078,-3.199218 -1.6,-1.9 -2.300001,-4.300782 -2,-6.800782 0.1,-1 -0.299611,-1.999218 -1.099611,-2.699218 -0.8,-0.7 -1.798828,-0.89961 -2.798828,-0.59961 -2.4,0.7 -4.9,0.399219 -7,-0.800781 -2.1,-1.2 -3.701172,-3.299219 -4.201172,-5.699219 -0.2,-1 -0.90039,-1.801562 -1.90039,-2.101562 -1,-0.3 -1.998828,-0.19961 -2.798828,0.40039 -2,1.5 -4.400391,2.09961 -6.900391,1.59961 -2.4,-0.4 -4.500391,-1.798438 -5.900391,-3.898438 C 66.999609,12.500781 66,12 65,12 Z m 0.0918,20.398438 C 62.917773,32.40918 60.7125,32.637109 58.5,33.099609 c -1.6,0.3 -2.700781,1.9 -2.300781,3.5 0.3,1.6 1.9,2.700782 3.5,2.300782 3,-0.6 6.000781,-0.700782 8.800781,-0.300782 9.7,4.9 16.300781,14.800782 16.300781,26.300782 0,11.4 -6.601172,21.398828 -16.201172,26.298828 -13.8,1.9 -26.998828,-7.098438 -29.798828,-20.898438 -0.4,-1.5 -1.901562,-2.600781 -3.601562,-2.300781 -1.6,0.3 -2.698828,1.9 -2.298828,3.5 3.1,15.3 16.8,25.900391 32,25.900391 2.2,0 4.399609,-0.201172 6.599609,-0.701172 17.7,-3.6 29.19961,-20.898438 25.599609,-38.398438 -3.15,-15.4 -16.789648,-25.977539 -32.007812,-25.902343 z M 21.417969,37.154297 C 21.032031,37.187109 20.650781,37.3 20.300781,37.5 18.800781,38.2 18.2,40.1 19,41.5 c 1.1,2.2 1.300391,4.699609 0.400391,7.099609 -0.9,2.3 -2.600391,4.19961 -4.900391,5.09961 -0.9,0.4 -1.600781,1.201172 -1.800781,2.201172 -0.2,1 0.20039,1.999218 0.90039,2.699218 1.8,1.7 2.800782,4 2.800782,6.5 0,2.5 -1.000782,4.8 -2.800782,6.5 -0.7,0.7 -1.10039,1.701172 -0.90039,2.701172 0.2,1 0.800781,1.799219 1.800781,2.199219 2.3,1 4.000391,2.799609 4.900391,5.099609 0.9,2.3 0.699609,4.79961 -0.400391,7.09961 -0.7,1.4 -0.09922,3.2 1.300781,4 0.4,0.2 0.898828,0.300781 1.298828,0.300781 1.1,0 2.201172,-0.599609 2.701172,-1.599609 C 26.100781,87.700391 26.4,83.399609 25,79.599609 24,76.999609 22.399219,74.7 20.199219,73 21.699219,70.7 22.5,67.899609 22.5,65.099609 c 0,-2.8 -0.800781,-5.50039 -2.300781,-7.90039 2.2,-1.7 3.900781,-3.99961 4.800781,-6.59961 1.4,-3.9 1.100781,-8.198828 -0.699219,-11.798828 -0.525,-1.125 -1.725,-1.744922 -2.882812,-1.646484 z m 7.222656,61.800781 c -1.171875,-0.09844 -2.314844,0.519531 -2.839844,1.644532 l -5.701172,11.30078 c -0.6,1.2 -0.30039,2.69961 0.59961,3.59961 1.1,0.9 2.601172,1.10039 3.701172,0.40039 l 12.40039,-7.59961 c 1.5,-0.9 3.198828,-1.00039 4.798828,-0.40039 1.6,0.7 2.69961,1.99922 3.09961,3.69922 L 45,112.80078 c 0.2,1 0.900391,1.79961 1.900391,2.09961 0.9,0.3 1.998828,0.19961 2.798828,-0.40039 2,-1.5 4.40039,-2.09961 6.90039,-1.59961 2.4,0.4 4.500391,1.80039 5.900391,3.90039 C 63,117.50078 64,118 65,118 c 1,0 2,-0.50039 2.5,-1.40039 1.4,-2.1 3.500391,-3.50039 5.900391,-3.90039 2.4,-0.4 4.90039,0.10156 6.90039,1.60156 0.8,0.6 1.898828,0.79844 2.798828,0.39844 1,-0.3 1.700391,-1.09961 1.900391,-2.09961 0.6,-2.4 2.099219,-4.39922 4.199219,-5.69922 2.2,-1.2 4.7,-1.50078 7,-0.80078 1.6,0.5 3.301172,-0.4 3.701172,-2 0.499999,-1.6 -0.4,-3.29922 -2,-3.69922 -3.9,-1.199999 -8.200782,-0.699609 -11.800782,1.40039 -2.4,1.4 -4.399218,3.49844 -5.699218,5.89844 -2.6,-1 -5.401172,-1.29844 -8.201172,-0.89844 -2.8,0.5 -5.298438,1.79961 -7.398438,3.59961 -2.1,-1.8 -4.60039,-3.09961 -7.40039,-3.59961 -2.7,-0.5 -5.5,-0.20117 -8,0.79883 -1.2,-2.4 -3.201172,-4.29883 -5.701172,-5.29883 -3.4,-1.4 -7.099219,-1.10117 -10.199219,0.79883 l -3.300781,2 0.90039,-1.79883 c 0.8,-1.5 0.201172,-3.3 -1.298828,-3.999999 -0.375,-0.2 -0.769531,-0.31289 -1.160156,-0.345703 z"
     id="path1407"
     inkscape:connector-curvature="0"
     sodipodi:nodetypes="scsscccsccccccccccscscscscscsccsccscccccscscscscscscscscssccssccccsccccsccscccccscscscsccscccsccccccccccccccsccscssccccccsccccccccccc" />
</svg>
