<?xml version="1.0" encoding="UTF-8" standalone="no"?>
<svg
   xmlns:dc="http://purl.org/dc/elements/1.1/"
   xmlns:cc="http://creativecommons.org/ns#"
   xmlns:rdf="http://www.w3.org/1999/02/22-rdf-syntax-ns#"
   xmlns:svg="http://www.w3.org/2000/svg"
   xmlns="http://www.w3.org/2000/svg"
   xml:space="preserve"
   viewBox="0 0 64 64"
   y="0px"
   x="0px"
   id="Layer_1"
   version="1.1"><metadata
   id="metadata21"><rdf:RDF><cc:Work
       rdf:about=""><dc:format>image/svg+xml</dc:format><dc:type
         rdf:resource="http://purl.org/dc/dcmitype/StillImage" /><dc:title></dc:title></cc:Work></rdf:RDF></metadata><defs
   id="defs19">
	
	
	
	
	
</defs>
<path
   style="stroke-width:0.96824586"
   class="st0"
   d="M 57,19.846153 54.324415,19.538462 C 53.822742,19.384616 53.488294,19.230769 53.32107,18.923076 l -1.170568,-2.461537 -1.170569,2.153846 c -0.167224,0.307691 -0.501672,0.615384 -1.003345,0.615384 l -2.675585,0.615384 1.839465,1.692308 c 0.334448,0.307694 0.501672,0.615385 0.334448,1.076924 L 48.973244,25.076922 51.314381,24 c 0.167224,-0.153846 0.334448,-0.153846 0.668896,-0.153846 0.167225,0 0.501673,0 0.668897,0.153846 l 2.341137,1.076922 -0.334448,-2.461537 c -0.167224,-0.461539 0,-0.76923 0.501672,-1.076924 z"
   id="path4" /><path
   style="stroke-width:0.96824586"
   class="st0"
   d="m 39.77592,30.307692 c -0.167224,0.307693 -0.501673,0.615385 -1.003345,0.615385 l -1.672241,0.153846 1.170569,1.076923 c 0.334448,0.307692 0.501672,0.769231 0.334448,1.076923 l -0.334448,1.384616 1.505017,-0.769231 c 0.167224,-0.153846 0.334448,-0.153846 0.501672,-0.153846 0.167224,0 0.501672,0 0.668896,0.153846 l 1.337793,0.615385 -0.334448,-1.538462 c -0.167224,-0.307692 0,-0.769231 0.334448,-0.923077 l 1.170568,-1.076923 -1.67224,-0.153846 c -0.334449,0 -0.668897,-0.307693 -0.836121,-0.615385 l -0.668896,-1.384615 z"
   id="path6" /><path
   style="stroke-width:0.96824586"
   class="st0"
   d="m 32.250836,44.153846 c -0.167224,0.153846 -0.334448,0.307692 -0.334448,0.461538 l -0.668896,0.769231 c -0.668897,0.769231 -1.170569,1.384615 -1.505017,2.153846 -0.167224,0.615384 -0.334448,1.384615 0,2 0.501672,0.769231 2.006689,0.923077 3.010033,0.769231 0.334448,0 0.836121,-0.153845 1.170569,-0.153845 C 34.926421,50 36.09699,49.846154 37.267558,50 c 0.334449,0 0.836121,0.153847 1.170569,0.307692 0.334448,0.153846 0.668896,0.153846 0.83612,0.153846 0.501673,0 1.003345,0 1.337793,-0.153846 0.167224,-0.153845 0.334448,-0.769231 0.167224,-1.230769 0,-0.153847 0,-0.307692 -0.167224,-0.461538 0.167224,-0.769231 0,-1.384616 0,-2 0,-0.153847 0,-0.307692 0,-0.461539 -0.83612,0 -1.672241,0.153847 -3.010033,0.461539 -1.170569,0.461538 -3.177258,0.307692 -5.351171,-2.461539 z"
   id="path8" /><path
   style="stroke-width:0.96824586"
   class="st0"
   d="m 50.979933,54.461538 c -2.006689,-1.076923 -4.51505,-2.461539 -5.852843,-4.615384 -1.003344,-1.692309 -1.839465,-2.769231 -2.842809,-3.230769 0,0 0,0 0,0.153845 0,0.307693 0,0.769231 0.167224,1.23077 0,0.153845 0.167224,0.461538 0.167224,0.615385 0.167224,1.076922 0,1.999999 -0.668896,2.615384 -0.501673,0.461539 -1.170569,0.76923 -2.006689,0.76923 -0.167224,0 -0.501673,0 -0.836121,0 -0.334448,0 -0.668896,-0.153845 -1.170568,-0.307691 -0.334448,-0.153846 -0.668897,-0.153846 -1.003345,-0.307693 -0.83612,-0.153846 -1.839465,0 -2.842809,0.153847 -0.501672,0 -0.836121,0.153846 -1.337793,0.153846 -2.173913,0.307691 -3.846154,-0.307693 -4.682274,-1.538461 C 27.401338,49.230769 27.401338,48 27.90301,46.76923 c 0.334448,-0.923076 1.003344,-1.692307 1.672241,-2.461538 l 0.83612,-0.923077 c 0.167224,-0.307692 0.501672,-0.461539 0.668896,-0.769231 -1.505016,-2.461538 -2.675585,-5.538461 -3.177257,-6.76923 v -0.153847 c -0.167224,-0.615384 -0.334448,-0.923076 -0.334448,-1.230768 -0.167224,-0.769231 -0.167224,-0.769231 -1.839465,-2.153846 -2.173913,-2.000001 0,-4.615385 1.505017,-6.307693 0.334448,-0.461538 0.668896,-0.923078 1.003344,-1.230769 1.003345,-1.384616 3.846154,-5.846155 3.177258,-9.538462 C 30.578595,11.076923 30.913043,10 33.588629,7.6923077 c 1.003344,-0.923077 2.173913,-1.5384615 3.177257,-2.1538462 1.003345,-0.6153846 2.006689,-1.2307692 2.173913,-1.6923077 0.167224,-0.6153846 0,-1.3846153 0,-1.8461538 -1.672241,0.3076923 -5.852843,0.923077 -8.19398,1.0769231 -1.003344,0 -2.006689,0 -3.010033,0 -0.501672,0 -1.003345,0 -1.505017,0 -0.83612,0 -1.337793,0.1538461 -1.672241,0.4615384 -0.501672,0.4615384 -1.505016,1.5384616 -2.842809,2.923077 -3.511706,3.6923075 -6.020067,6.3076935 -7.023411,6.9230775 -1.505017,0.769231 -3.010034,2.307692 -3.177258,2.923076 -0.167224,0.615385 -0.167224,2.461539 -0.167224,3.538461 0,0.153847 0,0.307693 -0.167224,0.307693 0,0 -0.83612,1.384615 -1.6722409,2.923077 0.1672241,0 0.1672241,0.153847 0.3344482,0.153847 2.1739127,0.923076 3.3444817,1.999999 3.5117057,3.384614 0.167224,0.769231 -0.167224,1.538462 -0.334448,2.153847 -0.167224,0.615384 -0.334448,1.230769 -0.167224,1.692307 0.167224,0.307693 0.501672,0.769231 0.668896,1.076924 0.501672,0.615384 1.170569,1.384615 1.170569,2.307692 0,1.076922 -1.003345,2 -2.341138,2.461538 -0.668896,0.153846 -1.170568,0.307692 -1.839464,0.307692 -0.334449,0 -0.6688967,0 -1.0033449,0.153847 -0.8361204,0.153845 -1.8394649,0.615384 -2.5083612,1.230768 0.1672241,0.769231 0.3344482,1.538462 0.8361204,1.846155 2.1739127,1.846154 3.3444817,3.846153 3.5117057,5.692308 0,0.307692 0,0.615384 0,1.076923 0,1.846153 0,5.538461 1.672241,6.153845 0.501672,0.153847 1.170568,0.461539 2.173913,0.923078 3.344481,1.384615 8.361204,3.384615 10.033445,4.461538 0.668896,0.461538 1.505016,0.923077 2.173913,1.538461 C 28.906354,60.769231 30.411371,62 31.916388,62 c 1.170568,0 4.013378,-0.461538 6.856187,-0.769231 3.511706,-0.461538 7.023411,-0.923077 8.695652,-0.923077 h 0.167224 c 2.508362,0 5.351171,-2.307693 5.518395,-3.846154 0.668896,-0.615385 -1.003344,-1.384615 -2.173913,-2 z M 29.240803,15.999999 c 0.334448,-0.153845 0.668896,0 0.83612,0.307693 0.167224,0.307693 0,0.615385 -0.334448,0.769231 -0.334448,0.153847 -0.668897,0 -0.836121,-0.307693 -0.334448,-0.307691 0,-0.615384 0.334449,-0.769231 z m -0.668897,2.307693 c 0.334448,-0.153847 0.668897,0 0.836121,0.307693 0.167224,0.307691 0,0.615384 -0.334449,0.769231 -0.334448,0.153846 -0.668896,0 -0.83612,-0.307693 -0.167224,-0.307692 0,-0.615385 0.334448,-0.769231 z m -1.839465,-1.384615 c 0.334449,-0.153847 0.668897,0 0.836121,0.307693 0.167224,0.307691 0,0.615384 -0.334448,0.769231 -0.334449,0.153844 -0.668897,0 -0.836121,-0.307694 -0.167224,-0.307692 0,-0.615384 0.334448,-0.76923 z M 14.859532,44.615384 c -0.334448,0 -0.668897,-0.307692 -0.668897,-0.615384 0,-0.307693 0.334449,-0.615385 0.668897,-0.615385 0.334448,0 0.668896,0.307692 0.668896,0.615385 0,0.307692 -0.167224,0.615384 -0.668896,0.615384 z m 0,-2.307692 c -0.334448,0 -0.668897,-0.307692 -0.668897,-0.615384 0,-0.307693 0.334449,-0.615385 0.668897,-0.615385 0.334448,0 0.668896,0.307692 0.668896,0.615385 0,0.307692 -0.167224,0.615384 -0.668896,0.615384 z m 2.173913,1.076923 c -0.334448,0 -0.668897,-0.307692 -0.668897,-0.615384 0,-0.307692 0.334449,-0.615385 0.668897,-0.615385 0.334448,0 0.668896,0.307693 0.668896,0.615385 0,0.461538 -0.334448,0.615384 -0.668896,0.615384 z M 24.558528,8.923077 c -0.668896,0.153846 -1.170568,0.769231 -1.67224,1.692308 -0.167225,0.153845 -0.167225,0.461538 -0.334449,0.615385 -0.334448,0.615384 -0.668896,1.384615 -1.337792,1.999999 C 20.54515,14 19.541806,14.615384 18.538461,15.076924 c -0.334448,0.153845 -0.668896,0.307691 -1.003344,0.461538 -0.501672,0.307692 -2.006689,1.230768 -1.839465,2.307692 0,0.461538 -0.334448,0.769231 -0.83612,0.769231 v 0 c -0.501673,0 -0.836121,-0.307693 -0.836121,-0.769231 0,-1.846155 1.672241,-3.076923 2.675586,-3.692307 0.334448,-0.153847 0.668896,-0.307694 1.003344,-0.615385 0.83612,-0.461539 1.672241,-0.76923 2.173913,-1.384617 0.501672,-0.461537 0.668896,-1.076922 1.003345,-1.692306 C 21.046823,10.307692 21.046823,10 21.214047,9.846154 c 0.501672,-0.769231 1.170568,-2.0000002 2.508361,-2.4615386 0.501672,-0.1538462 0.83612,0 1.170568,0.4615384 0.334449,0.4615382 0.167225,0.9230772 -0.334448,1.0769232 z m 24.58194,48.461538 v 0 c -0.501672,0 -0.83612,-0.307692 -0.83612,-0.769231 0,-0.307692 -0.501673,-0.615384 -0.836121,-0.769231 C 47.133779,55.692307 46.799331,55.692307 46.464883,55.538461 45.963211,55.384616 45.628762,55.384616 45.12709,55.230769 44.123746,54.76923 43.287625,54 43.454849,52.76923 c 0,-0.461538 0.501673,-0.769231 1.003345,-0.615384 0.501672,0 0.83612,0.461539 0.668896,0.923077 0,0.307692 0.334448,0.615385 0.668896,0.769231 C 46.130435,54 46.464883,54 46.799331,54.153845 c 0.334448,0.153847 0.668896,0.153847 1.170569,0.307693 0.83612,0.307692 1.839464,1.076923 2.006688,2.153846 0,0.461539 -0.334448,0.769231 -0.83612,0.769231 z"
   id="path10" /><path
   style="stroke-width:0.96824586"
   class="st0"
   d="m 7.8361203,30 c 0,1.692307 0,3.384615 0,4.153846 0,0.153846 0,0.461539 -0.1672241,0.76923 0,0.307693 -0.167224,0.615385 -0.167224,1.076924 0.6688963,-0.307693 1.3377926,-0.615385 2.173913,-0.769231 0.3344478,0 0.6688968,-0.153846 1.1705688,-0.153846 0.501672,0 1.003344,-0.153847 1.505016,-0.307692 0.501673,-0.153846 1.170569,-0.615385 1.170569,-1.076923 0,-0.461539 -0.334448,-0.769231 -0.668896,-1.384615 -0.334448,-0.461539 -0.836121,-0.923078 -1.003345,-1.692308 -0.334448,-0.923078 0,-1.692309 0.167224,-2.461539 0.167224,-0.615385 0.334448,-1.076922 0.167224,-1.538462 -0.167224,-1.076922 -1.505016,-1.692307 -2.5083608,-2.153846 -0.1672241,0 -0.3344482,-0.153846 -0.3344482,-0.153846 C 8.1705685,26.615384 8.0033444,27.538461 8.0033444,27.846154 7.8361203,28.461539 7.8361203,29.230769 7.8361203,30 Z"
   id="path12" />
</svg>